<?xml version="1.0" standalone="no"?>
<!DOCTYPE svg PUBLIC "-//W3C//DTD SVG 20010904//EN"
 "http://www.w3.org/TR/2001/REC-SVG-20010904/DTD/svg10.dtd">
<svg version="1.0" xmlns="http://www.w3.org/2000/svg"
 width="70.000000pt" height="70.000000pt" viewBox="0 0 70.000000 70.000000"
 preserveAspectRatio="xMidYMid meet">
<metadata>
Created by potrace 1.16, written by Peter Selinger 2001-2019
</metadata>
<g transform="translate(0.000000,70.000000) scale(0.006836,-0.006836)"
fill="#000000" stroke="none">
<path d="M4506 6479 c-10 -15 -20 -19 -35 -14 -15 4 -28 -1 -45 -18 -14 -14
-26 -21 -28 -16 -2 5 -9 4 -17 -1 -12 -7 -10 -19 13 -74 31 -73 36 -78 55 -67
10 7 8 19 -9 60 -18 41 -20 54 -10 66 22 26 38 16 61 -40 24 -57 26 -60 46
-47 10 6 8 20 -9 59 -18 43 -19 54 -9 67 21 25 29 20 57 -36 32 -65 29 -62 47
-51 13 7 11 17 -13 71 -26 56 -32 62 -59 62 -19 0 -35 -8 -45 -21z"/>
<path d="M5817 6409 c-48 -28 -53 -114 -8 -138 24 -13 68 -14 76 -2 8 13 -16
26 -42 23 -14 -2 -23 4 -28 18 -10 33 1 35 49 9 25 -13 47 -21 50 -18 3 3 9
19 12 37 11 56 -57 101 -109 71z"/>
<path d="M4262 6363 c-7 -3 -17 -16 -22 -28 -6 -15 -19 -25 -37 -27 -16 -2
-32 -12 -38 -24 -6 -11 -16 -19 -23 -16 -6 2 -15 -3 -18 -12 -7 -17 64 -126
83 -126 25 0 23 22 -8 66 -24 35 -29 51 -22 62 18 29 31 23 64 -25 18 -26 34
-50 36 -52 2 -3 10 2 18 10 12 12 10 20 -16 59 -32 47 -34 73 -7 78 11 2 29
-13 50 -42 30 -44 51 -56 62 -37 3 4 -11 33 -32 62 -36 51 -59 65 -90 52z"/>
<path d="M5985 6320 c-10 -16 5 -31 24 -25 22 7 49 -21 34 -36 -6 -6 -22 -4
-46 6 -45 19 -77 7 -77 -29 0 -25 28 -56 51 -56 8 0 20 -10 27 -21 13 -21 15
-19 53 37 21 33 39 64 39 71 0 17 -59 63 -80 63 -10 0 -22 -4 -25 -10z"/>
<path d="M4009 6161 c-34 -27 -32 -86 5 -117 37 -32 71 -30 107 5 33 33 35 50
14 90 -23 46 -84 56 -126 22z"/>
<path d="M3854 6070 c-12 -4 -31 -21 -43 -36 -38 -48 -22 -110 38 -151 49 -33
86 -30 127 11 35 35 42 63 24 96 -17 31 -42 14 -35 -24 8 -41 -21 -72 -60 -62
-37 9 -75 50 -75 80 0 27 34 58 55 50 17 -7 29 27 13 38 -15 9 -17 9 -44 -2z"/>
<path d="M6434 5780 c-56 -68 -81 -81 -101 -54 -9 13 -16 15 -24 7 -13 -13 3
-48 26 -57 16 -6 214 20 223 29 3 3 0 11 -7 19 -9 10 -21 12 -49 5 -74 -17
-80 -13 -39 29 36 37 46 65 28 76 -4 3 -30 -21 -57 -54z"/>
<path d="M6571 5559 c-52 -16 -96 -31 -98 -33 -3 -3 -1 -11 4 -19 7 -13 16
-12 68 4 33 10 64 17 69 16 5 -2 -18 -19 -50 -38 -41 -24 -60 -42 -62 -58 -4
-23 -3 -24 82 -19 95 5 94 -2 -1 -28 -65 -17 -68 -20 -55 -41 6 -9 32 -5 107
17 54 17 100 30 101 30 2 0 -2 14 -7 30 -11 30 -11 30 -87 30 l-77 0 60 36
c33 20 62 38 63 39 6 6 -9 65 -16 64 -4 0 -49 -14 -101 -30z"/>
<path d="M6650 5280 c0 -11 5 -20 10 -20 6 0 10 -11 10 -25 0 -38 -23 -30 -42
15 -13 31 -22 40 -41 40 -34 0 -51 -23 -42 -57 4 -16 6 -41 6 -57 0 -24 3 -27
22 -23 12 3 44 9 70 13 38 5 50 12 57 29 10 27 3 63 -18 88 -20 23 -32 22 -32
-3z"/>
<path d="M6563 4908 c-4 -7 -8 -36 -9 -65 l-2 -52 66 -7 c57 -6 67 -4 79 12
16 22 17 86 1 102 -22 22 -29 12 -22 -33 5 -36 3 -45 -9 -45 -9 0 -17 14 -22
38 -9 47 -21 62 -51 62 -12 0 -26 -6 -31 -12z"/>
<path d="M6490 4742 c-13 -10 -23 -33 -27 -57 -7 -54 11 -68 114 -93 74 -17
83 -17 88 -3 3 9 1 17 -5 19 -8 3 -6 9 3 21 31 33 25 76 -13 96 -65 34 -127 6
-118 -55 5 -34 4 -34 -23 -20 -20 11 -26 45 -9 55 17 10 31 43 21 49 -5 3 -19
-2 -31 -12z"/>
<path d="M6491 4541 c-27 -27 -36 -64 -21 -92 11 -19 14 -20 21 -6 5 8 8 25 7
37 -3 22 25 50 38 38 3 -4 -1 -27 -9 -52 -8 -24 -13 -47 -9 -50 3 -3 20 -6 38
-6 35 0 74 37 74 71 0 30 -42 69 -81 75 -29 5 -41 2 -58 -15z"/>
<path d="M6426 4394 c-4 -9 -5 -18 -4 -19 2 -1 24 -14 51 -29 47 -27 56 -43
36 -63 -9 -9 -26 -5 -66 15 -46 23 -55 24 -63 12 -7 -12 2 -22 40 -45 50 -30
65 -60 36 -71 -8 -3 -35 6 -60 21 -44 26 -66 26 -66 2 0 -14 97 -67 121 -67
22 0 40 23 42 52 1 13 12 31 24 41 13 10 23 29 23 42 0 12 7 25 15 29 27 10
16 24 -50 60 -36 20 -67 36 -69 36 -2 0 -7 -7 -10 -16z"/>
<path d="M6262 4127 c-24 -25 -31 -82 -10 -75 7 3 15 15 18 28 7 29 35 49 50
34 7 -7 1 -22 -20 -49 -29 -37 -30 -40 -14 -52 26 -19 71 -16 94 7 29 29 25
71 -8 103 -36 34 -80 36 -110 4z"/>
<path d="M5850 3769 c-61 -25 -81 -87 -40 -124 19 -17 27 -18 78 -7 65 14 86
4 57 -28 -13 -15 -29 -20 -53 -18 -41 3 -53 -15 -22 -32 25 -13 72 -1 102 27
24 21 23 65 -2 88 -18 16 -26 17 -71 7 -57 -13 -69 -10 -69 19 0 27 45 47 70
32 13 -9 22 -9 35 1 17 12 16 14 -6 29 -26 19 -43 20 -79 6z"/>
<path d="M4898 3519 c-1 -33 0 -69 4 -79 9 -24 42 -34 68 -20 15 8 25 8 34 1
6 -5 35 -9 63 -9 50 1 51 2 57 37 3 20 6 53 6 74 0 30 -4 37 -20 37 -17 0 -20
-7 -20 -44 0 -60 -8 -76 -37 -76 -24 0 -25 2 -21 62 2 52 0 63 -13 66 -16 3
-29 -33 -29 -83 0 -30 -25 -51 -44 -36 -9 8 -12 26 -8 62 3 37 1 54 -9 60 -24
15 -27 10 -31 -52z"/>
<path d="M5210 3567 c-28 -14 -40 -47 -17 -47 8 0 20 7 27 15 16 19 25 19 46
-2 15 -16 15 -17 -2 -24 -11 -4 -36 -8 -56 -8 -43 -1 -43 0 -24 -45 36 -86
155 -34 133 57 -14 53 -61 78 -107 54z"/>
</g>
</svg>
